# Blender v2.75 (sub 0) OBJ File: 'blender.blend'
# www.blender.org
mtllib blender.mtl
o Cylinder.001
v 0.000000 0.553629 -0.344795
v -0.000000 1.724550 -0.395543
v 0.080956 1.724550 -0.387942
v 0.070569 0.553629 -0.338170
v 0.138427 0.553629 -0.318549
v 0.200964 0.553629 -0.286687
v 0.255779 0.553629 -0.243807
v 0.300764 0.553629 -0.191558
v 0.334191 0.553629 -0.131947
v 0.354776 0.553629 -0.067266
v 0.361726 0.553629 -0.000000
v 0.354776 0.553629 0.067266
v 0.334192 0.553629 0.131947
v 0.300764 0.553629 0.191558
v 0.255779 0.553629 0.243807
v 0.200964 0.553629 0.286687
v 0.138427 0.553629 0.318549
v 0.070569 0.553629 0.338170
v -0.000000 0.553629 0.344795
v -0.070569 0.553629 0.338170
v -0.138427 0.553629 0.318549
v -0.200964 0.553629 0.286686
v -0.255779 0.553629 0.243807
v -0.300765 0.553629 0.191558
v -0.334192 0.553629 0.131947
v -0.354776 0.553629 0.067266
v -0.361726 0.553629 -0.000000
v -0.354776 0.553629 -0.067267
v -0.334191 0.553629 -0.131948
v -0.300764 0.553629 -0.191558
v -0.255779 0.553629 -0.243807
v -0.200964 0.553629 -0.286687
v -0.138426 0.553629 -0.318549
v -0.070569 0.553629 -0.338170
v -0.080955 1.724550 -0.387942
v -0.158800 1.724550 -0.365434
v -0.230542 1.724550 -0.328882
v -0.293425 1.724550 -0.279691
v -0.345031 1.724550 -0.219752
v -0.383378 1.724550 -0.151368
v -0.406992 1.724550 -0.077167
v -0.414966 1.724550 -0.000000
v -0.392259 1.724550 -0.000000
v -0.384722 1.724550 -0.073549
v -0.362400 1.724550 -0.144271
v -0.326152 1.724550 -0.209449
v -0.277369 1.724550 -0.266578
v -0.217927 1.724550 -0.313462
v -0.150111 1.724550 -0.348301
v -0.076525 1.724550 -0.369754
v -0.000000 1.724550 -0.376998
v 0.076526 1.724550 -0.369754
v 0.150111 1.724550 -0.348301
v 0.217928 1.724550 -0.313462
v 0.277369 1.724550 -0.266578
v 0.326152 1.724550 -0.209449
v 0.362401 1.724550 -0.144271
v 0.384722 1.724550 -0.073549
v 0.392259 1.724550 -0.000000
v 0.406992 1.724550 0.077166
v 0.414966 1.724550 -0.000000
v 0.406992 1.724550 -0.077167
v 0.383378 1.724550 -0.151368
v 0.345031 1.724550 -0.219752
v 0.293425 1.724550 -0.279691
v 0.230543 1.724550 -0.328882
v 0.158801 1.724550 -0.365434
v 0.384722 1.724550 0.073549
v 0.362401 1.724550 0.144271
v 0.326152 1.724550 0.209449
v 0.277369 1.724550 0.266578
v 0.217928 1.724550 0.313462
v 0.150111 1.724550 0.348301
v 0.076526 1.724550 0.369754
v -0.000000 1.724550 0.376998
v -0.076526 1.724550 0.369754
v -0.150111 1.724550 0.348300
v -0.217928 1.724550 0.313462
v -0.277369 1.724550 0.266578
v -0.326152 1.724550 0.209449
v -0.362401 1.724550 0.144271
v -0.384722 1.724550 0.073548
v -0.406992 1.724550 0.077166
v -0.383378 1.724550 0.151367
v -0.345032 1.724550 0.219751
v -0.293425 1.724550 0.279691
v -0.230543 1.724550 0.328882
v -0.158801 1.724550 0.365434
v -0.080956 1.724550 0.387942
v -0.000000 1.724550 0.395543
v 0.080956 1.724550 0.387942
v 0.158800 1.724550 0.365434
v 0.230543 1.724550 0.328882
v 0.293425 1.724550 0.279691
v 0.345031 1.724550 0.219752
v 0.383378 1.724550 0.151368
v 0.000000 0.665152 -0.328630
v 0.066708 0.665152 -0.322315
v 0.130852 0.665152 -0.303614
v -0.066707 0.665152 -0.322315
v -0.130852 0.665152 -0.303614
v -0.189967 0.665152 -0.273246
v -0.241783 0.665152 -0.232376
v -0.284307 0.665152 -0.182577
v -0.315905 0.665152 -0.125761
v -0.335363 0.665152 -0.064113
v -0.341933 0.665152 -0.000000
v -0.335363 0.665152 0.064112
v -0.315905 0.665152 0.125761
v -0.284307 0.665152 0.182577
v -0.241783 0.665152 0.232376
v -0.189968 0.665152 0.273245
v -0.130852 0.665152 0.303614
v -0.066708 0.665152 0.322315
v -0.000000 0.665152 0.328630
v 0.066708 0.665152 0.322315
v 0.130852 0.665152 0.303614
v 0.189968 0.665152 0.273245
v 0.241783 0.665152 0.232376
v 0.284307 0.665152 0.182577
v 0.315905 0.665152 0.125761
v 0.335363 0.665152 0.064112
v 0.341933 0.665152 -0.000000
v 0.335363 0.665152 -0.064112
v 0.315905 0.665152 -0.125761
v 0.284307 0.665152 -0.182577
v 0.241783 0.665152 -0.232376
v 0.189968 0.665152 -0.273245
vn 0.093400 -0.043100 -0.994700
vn 0.000000 -1.000000 0.000000
vn -0.093400 -0.043100 -0.994700
vn 0.000000 1.000000 0.000000
vn 0.277500 -0.043300 -0.959700
vn 0.453500 -0.043500 -0.890200
vn 0.615500 -0.043900 -0.786900
vn 0.757100 -0.044300 -0.651800
vn 0.871400 -0.044700 -0.488600
vn 0.951900 -0.045000 -0.302900
vn 0.993700 -0.045200 -0.102700
vn 0.993700 -0.045200 0.102700
vn 0.951900 -0.045000 0.302900
vn 0.871400 -0.044700 0.488600
vn 0.757100 -0.044300 0.651800
vn 0.615500 -0.043900 0.786900
vn 0.453500 -0.043500 0.890200
vn 0.277500 -0.043300 0.959700
vn 0.093400 -0.043100 0.994700
vn -0.093400 -0.043100 0.994700
vn -0.277500 -0.043300 0.959700
vn -0.453500 -0.043500 0.890200
vn -0.615500 -0.043900 0.786900
vn -0.757100 -0.044300 0.651800
vn -0.871400 -0.044700 0.488600
vn -0.951900 -0.045000 0.302900
vn -0.993700 -0.045200 0.102700
vn -0.993700 -0.045200 -0.102700
vn -0.951900 -0.045000 -0.302900
vn -0.871400 -0.044700 -0.488600
vn -0.757100 -0.044300 -0.651800
vn -0.615500 -0.043900 -0.786900
vn -0.453500 -0.043500 -0.890200
vn -0.277500 -0.043300 -0.959700
vn -0.094100 0.045400 0.994500
vn -0.279600 0.045500 0.959000
vn 0.094100 0.045400 0.994500
vn -0.456500 0.045800 0.888600
vn -0.618600 0.046100 0.784300
vn -0.759700 0.046500 0.648700
vn -0.873000 0.046800 0.485500
vn -0.952600 0.047100 0.300700
vn -0.993700 0.047200 0.101800
vn -0.993700 0.047200 -0.101800
vn -0.952600 0.047100 -0.300700
vn -0.873000 0.046800 -0.485500
vn -0.759700 0.046500 -0.648700
vn -0.618600 0.046100 -0.784300
vn -0.456500 0.045800 -0.888600
vn -0.279600 0.045500 -0.959000
vn -0.094100 0.045400 -0.994500
vn 0.094100 0.045400 -0.994500
vn 0.279600 0.045500 -0.959000
vn 0.456500 0.045800 -0.888600
vn 0.618600 0.046100 -0.784300
vn 0.759700 0.046500 -0.648700
vn 0.873000 0.046800 -0.485500
vn 0.952600 0.047100 -0.300700
vn 0.993700 0.047200 -0.101800
vn 0.993700 0.047200 0.101800
vn 0.952600 0.047100 0.300700
vn 0.873000 0.046800 0.485500
vn 0.759700 0.046500 0.648700
vn 0.618600 0.046100 0.784300
vn 0.456500 0.045800 0.888600
vn 0.279600 0.045500 0.959000
usemtl Material.003
s off
f 1//1 2//1 3//1 4//1
f 1//2 4//2 5//2 6//2 7//2 8//2 9//2 10//2 11//2 12//2 13//2 14//2 15//2 16//2 17//2 18//2 19//2 20//2 21//2 22//2 23//2 24//2 25//2 26//2 27//2 28//2 29//2 30//2 31//2 32//2 33//2 34//2
f 34//3 35//3 2//3 1//3
f 2//4 35//4 36//4 37//4 38//4 39//4 40//4 41//4 42//4 43//4 44//4 45//4 46//4 47//4 48//4 49//4 50//4 51//4 52//4 53//4 54//4 55//4 56//4 57//4 58//4 59//4 60//4 61//4 62//4 63//4 64//4 65//4 66//4 67//4 3//4
f 60//4 59//4 68//4 69//4 70//4 71//4 72//4 73//4 74//4 75//4 76//4 77//4 78//4 79//4 80//4 81//4 82//4 43//4 42//4 83//4 84//4 85//4 86//4 87//4 88//4 89//4 90//4 91//4 92//4 93//4 94//4 95//4 96//4
f 4//5 3//5 67//5 5//5
f 5//6 67//6 66//6 6//6
f 6//7 66//7 65//7 7//7
f 7//8 65//8 64//8 8//8
f 8//9 64//9 63//9 9//9
f 9//10 63//10 62//10 10//10
f 10//11 62//11 61//11 11//11
f 11//12 61//12 60//12 12//12
f 12//13 60//13 96//13 13//13
f 13//14 96//14 95//14 14//14
f 14//15 95//15 94//15 15//15
f 15//16 94//16 93//16 16//16
f 16//17 93//17 92//17 17//17
f 17//18 92//18 91//18 18//18
f 18//19 91//19 90//19 19//19
f 19//20 90//20 89//20 20//20
f 20//21 89//21 88//21 21//21
f 21//22 88//22 87//22 22//22
f 22//23 87//23 86//23 23//23
f 23//24 86//24 85//24 24//24
f 24//25 85//25 84//25 25//25
f 25//26 84//26 83//26 26//26
f 26//27 83//27 42//27 27//27
f 27//28 42//28 41//28 28//28
f 28//29 41//29 40//29 29//29
f 29//30 40//30 39//30 30//30
f 30//31 39//31 38//31 31//31
f 31//32 38//32 37//32 32//32
f 32//33 37//33 36//33 33//33
f 33//34 36//34 35//34 34//34
f 52//35 51//35 97//35 98//35
f 53//36 52//36 98//36 99//36
f 97//4 100//4 101//4 102//4 103//4 104//4 105//4 106//4 107//4 108//4 109//4 110//4 111//4 112//4 113//4 114//4 115//4 116//4 117//4 118//4 119//4 120//4 121//4 122//4 123//4 124//4 125//4 126//4 127//4 128//4 99//4 98//4
f 51//37 50//37 100//37 97//37
f 54//38 53//38 99//38 128//38
f 55//39 54//39 128//39 127//39
f 56//40 55//40 127//40 126//40
f 57//41 56//41 126//41 125//41
f 58//42 57//42 125//42 124//42
f 59//43 58//43 124//43 123//43
f 68//44 59//44 123//44 122//44
f 69//45 68//45 122//45 121//45
f 70//46 69//46 121//46 120//46
f 71//47 70//47 120//47 119//47
f 72//48 71//48 119//48 118//48
f 73//49 72//49 118//49 117//49
f 74//50 73//50 117//50 116//50
f 75//51 74//51 116//51 115//51
f 76//52 75//52 115//52 114//52
f 77//53 76//53 114//53 113//53
f 78//54 77//54 113//54 112//54
f 79//55 78//55 112//55 111//55
f 80//56 79//56 111//56 110//56
f 81//57 80//57 110//57 109//57
f 82//58 81//58 109//58 108//58
f 43//59 82//59 108//59 107//59
f 44//60 43//60 107//60 106//60
f 45//61 44//61 106//61 105//61
f 46//62 45//62 105//62 104//62
f 47//63 46//63 104//63 103//63
f 48//64 47//64 103//64 102//64
f 49//65 48//65 102//65 101//65
f 50//66 49//66 101//66 100//66
o Cylinder
v -0.740461 0.012019 0.719970
v -0.451694 0.550077 0.439194
v -0.740461 0.012019 -0.719970
v -0.451694 0.550077 -0.439194
v 0.740461 0.012019 0.719970
v 0.451694 0.550077 0.439194
v 0.740461 0.012019 -0.719970
v 0.451694 0.550077 -0.439194
vn -0.881100 0.472900 0.000000
vn 0.000000 0.462600 -0.886600
vn 0.881100 0.472900 0.000000
vn 0.000000 0.462600 0.886600
vn 0.000000 -1.000000 0.000000
vn 0.000000 1.000000 0.000000
usemtl Material.004
s off
f 130//67 132//67 131//67 129//67
f 132//68 136//68 135//68 131//68
f 136//69 134//69 133//69 135//69
f 134//70 130//70 129//70 133//70
f 129//71 131//71 135//71 133//71
f 134//72 136//72 132//72 130//72
