# Blender v2.75 (sub 0) OBJ File: 'blender.blend'
# www.blender.org
mtllib smoothie.mtl
o Cylinder.002_Cylinder.004
v -0.323096 1.485457 0.936546
v 0.347566 1.485457 -0.070267
v 0.327400 1.485457 -0.137834
v 0.294652 1.485457 -0.200105
v 0.250581 1.485457 -0.254685
v 0.196880 1.485457 -0.299478
v 0.135613 1.485457 -0.332762
v 0.069135 1.485457 -0.353258
v 0.000000 1.485457 -0.360179
v -0.069135 1.485457 -0.353258
v -0.135613 1.485457 -0.332762
v -0.196880 1.485457 -0.299478
v -0.250581 1.485457 -0.254685
v -0.294652 1.485457 -0.200105
v -0.327399 1.485457 -0.137835
v -0.347566 1.485457 -0.070268
v -0.354375 1.485457 -0.000000
v -0.347566 1.485457 0.070267
v -0.327400 1.485457 0.137834
v -0.294652 1.485457 0.200104
v -0.250581 1.485457 0.254685
v -0.196880 1.485457 0.299477
v -0.135614 1.485457 0.332762
v -0.069135 1.485457 0.353258
v -0.000000 1.485457 0.360179
v 0.069135 1.485457 0.353258
v 0.135613 1.485457 0.332762
v 0.196880 1.485457 0.299478
v 0.250581 1.485457 0.254685
v 0.294652 1.485457 0.200105
v 0.327400 1.485457 0.137834
v 0.347566 1.485457 0.070267
v 0.354375 1.485457 -0.000000
v 0.057998 0.660661 -0.296352
v 0.000000 0.660661 -0.302158
v -0.057998 0.660661 -0.296352
v 0.113767 0.660661 -0.279157
v 0.165165 0.660661 -0.251235
v 0.210215 0.660661 -0.213658
v 0.247187 0.660661 -0.167870
v 0.274659 0.660661 -0.115631
v 0.291576 0.660661 -0.058948
v 0.297289 0.660661 -0.000000
v 0.291576 0.660661 0.058948
v 0.274659 0.660661 0.115631
v 0.247187 0.660661 0.167870
v 0.210215 0.660661 0.213658
v 0.165165 0.660661 0.251235
v 0.113767 0.660661 0.279157
v 0.057998 0.660661 0.296352
v -0.000000 0.660661 0.302157
v -0.057998 0.660661 0.296352
v -0.113768 0.660661 0.279157
v -0.165165 0.660661 0.251235
v -0.210215 0.660661 0.213657
v -0.247187 0.660661 0.167870
v -0.274659 0.660661 0.115630
v -0.291576 0.660661 0.058948
v -0.297289 0.660661 -0.000000
v -0.291576 0.660661 -0.058948
v -0.274659 0.660661 -0.115631
v -0.247186 0.660661 -0.167870
v -0.210215 0.660661 -0.213658
v -0.165164 0.660661 -0.251235
v -0.113767 0.660661 -0.279157
vn 0.000000 1.000000 -0.000000
vn 0.099400 -0.069800 -0.992600
vn -0.099400 -0.069800 -0.992600
vn 0.000000 -1.000000 -0.000000
vn 0.293900 -0.069700 -0.953300
vn -0.293900 -0.069700 -0.953300
vn -0.476200 -0.069600 -0.876600
vn -0.639000 -0.069400 -0.766100
vn -0.776200 -0.069200 -0.626700
vn -0.883000 -0.069000 -0.464300
vn -0.956000 -0.068800 -0.285300
vn -0.993000 -0.068700 -0.096200
vn -0.993000 -0.068700 0.096200
vn -0.956000 -0.068800 0.285300
vn -0.883000 -0.069000 0.464300
vn -0.776200 -0.069200 0.626700
vn -0.639000 -0.069400 0.766100
vn -0.476200 -0.069600 0.876600
vn -0.293900 -0.069700 0.953300
vn -0.099400 -0.069800 0.992600
vn 0.099400 -0.069800 0.992600
vn 0.293900 -0.069700 0.953300
vn 0.476200 -0.069600 0.876600
vn 0.639000 -0.069400 0.766100
vn 0.776200 -0.069200 0.626700
vn 0.883000 -0.069000 0.464300
vn 0.956000 -0.068800 0.285300
vn 0.993000 -0.068700 0.096200
vn 0.993000 -0.068700 -0.096200
vn 0.956000 -0.068800 -0.285300
vn 0.883000 -0.069000 -0.464300
vn 0.776200 -0.069200 -0.626700
vn 0.639000 -0.069400 -0.766100
vn 0.476200 -0.069600 -0.876600
usemtl Material.001
s off
f 2//1 3//1 4//1 5//1 6//1 7//1 8//1 9//1 10//1 11//1 12//1 13//1 14//1 15//1 16//1 17//1 18//1 19//1 20//1 21//1 22//1 23//1 24//1 25//1 26//1 27//1 28//1 29//1 30//1 31//1 32//1 33//1
f 9//2 8//2 34//2 35//2
f 10//3 9//3 35//3 36//3
f 35//4 34//4 37//4 38//4 39//4 40//4 41//4 42//4 43//4 44//4 45//4 46//4 47//4 48//4 49//4 50//4 51//4 52//4 53//4 54//4 55//4 56//4 57//4 58//4 59//4 60//4 61//4 62//4 63//4 64//4 65//4 36//4
f 8//5 7//5 37//5 34//5
f 11//6 10//6 36//6 65//6
f 12//7 11//7 65//7 64//7
f 13//8 12//8 64//8 63//8
f 14//9 13//9 63//9 62//9
f 15//10 14//10 62//10 61//10
f 16//11 15//11 61//11 60//11
f 17//12 16//12 60//12 59//12
f 18//13 17//13 59//13 58//13
f 19//14 18//14 58//14 57//14
f 20//15 19//15 57//15 56//15
f 21//16 20//16 56//16 55//16
f 22//17 21//17 55//17 54//17
f 23//18 22//18 54//18 53//18
f 24//19 23//19 53//19 52//19
f 25//20 24//20 52//20 51//20
f 26//21 25//21 51//21 50//21
f 27//22 26//22 50//22 49//22
f 28//23 27//23 49//23 48//23
f 29//24 28//24 48//24 47//24
f 30//25 29//25 47//25 46//25
f 31//26 30//26 46//26 45//26
f 32//27 31//27 45//27 44//27
f 33//28 32//28 44//28 43//28
f 2//29 33//29 43//29 42//29
f 3//30 2//30 42//30 41//30
f 4//31 3//31 41//31 40//31
f 5//32 4//32 40//32 39//32
f 6//33 5//33 39//33 38//33
f 7//34 6//34 38//34 37//34
